<?xml version="1.0" encoding="UTF-8"?><svg xmlns="http://www.w3.org/2000/svg" viewBox="0 0 6073.6 1460.82"><defs><style>.cls-1{fill:#fff;stroke-width:0px;}</style></defs><g id="Layer_2"><path class="cls-1" d="m848.9,275.5l-30.02,22.27c-34.86-43.12-77.56-77.12-128.11-101.97s-104.62-37.27-162.25-37.27c-50.38,0-98.61,9.84-144.67,29.5-46.06,19.67-85.75,46.16-119.05,79.45s-59.78,72.98-79.44,119.05c-19.67,46.06-29.5,94.28-29.5,144.66s9.83,98.61,29.5,144.67c19.66,46.06,46.14,85.75,79.44,119.05s72.98,59.78,119.05,79.44c46.06,19.67,81.25,22.52,131.63,22.52,57.62,0,77.85-36.77,133.78-43.46,26.51-3.18,93.59,15.14,141.79,27.83,53.47,14.08,131.74-18.17,159.62-26.74l11.74,35.37c-31.24,9.69-110.21,40.76-162.52,25.87-45.45-12.94-117.4-28.8-146.06-25.34-61.66,7.42-74.86,43.74-138.34,43.74-55.56,0-95.57-3.89-146.11-25.63-50.56-21.73-94.12-50.89-130.69-87.47-36.58-36.56-65.73-80.12-87.47-130.69-21.75-50.55-32.61-103.59-32.61-159.16s10.86-108.59,32.61-159.16c21.73-50.55,50.89-94.11,87.47-130.69s80.12-65.72,130.69-87.47c50.55-21.73,103.59-32.61,159.16-32.61,63.48,0,123.17,13.72,179.08,41.16,55.89,27.44,102.98,65.12,141.3,113.08Zm-57.97,46.58l-28.98,23.3c-27.95-34.84-62.28-62.28-103-82.3-40.72-20-84.19-30.02-130.42-30.02-40.38,0-78.94,7.86-115.69,23.55-36.75,15.7-68.48,36.92-95.23,63.67s-47.97,58.48-63.66,95.23c-15.7,36.75-23.55,75.3-23.55,115.67s7.84,78.94,23.55,115.69c15.69,36.75,36.91,68.48,63.66,95.23s58.48,47.97,95.23,63.66c36.75,15.7,62.27,16.56,102.64,16.56,46.23,0,80.98-37.56,126.03-42.96,21.93-2.63,79.23,19.95,132.77,31.94,56.44,12.65,133.86-21.31,155.75-28.13l9.6,35.79c-24.65,7.63-101.8,41.11-156.28,27.88-51.25-12.45-114.01-33.21-138.41-30.35-50.35,5.91-77.71,43.09-129.46,43.09-45.56,0-75.99-1.89-117.39-19.67-41.41-17.77-77.03-41.58-106.88-71.42s-53.66-65.48-71.42-106.89c-17.78-41.41-26.66-84.88-26.66-130.42s8.88-89.03,26.66-130.44c17.77-41.41,41.58-77.03,71.42-106.88s65.47-53.64,106.88-71.42c41.41-17.77,84.88-26.66,130.44-26.66,52.09,0,101.02,11.22,146.73,33.64,45.72,22.44,84.27,53.31,115.67,92.64Zm-58.48,46.59l-29.5,22.77c-20.7-26.22-46.33-46.73-76.86-61.58-30.55-14.84-63.06-22.27-97.56-22.27-61.77,0-114.47,21.92-158.13,65.73-43.66,43.83-65.47,96.45-65.47,157.86s21.81,114.05,65.47,157.86c43.66,43.83,83.32,58.75,145.08,58.75,34.5,0,83.51-38.49,117.47-42.48,17.43-2.04,68.42,25.48,128.91,36.92,57.33,10.84,130.2-25.4,145.68-30.35l10.32,35.64c-18.4,5.82-93.05,41.16-149.59,29.53-57.19-11.77-111.56-37.02-131.32-34.68-39.3,4.68-81.09,42.69-121.47,42.69-47.28,0-77.88-4.66-117.91-27.96-40.03-23.28-71.69-54.94-94.97-94.97-23.3-40.03-34.94-83.67-34.94-130.95s11.64-90.91,34.94-130.94c23.28-40.03,54.94-71.69,94.97-94.98,40.03-23.28,83.67-34.94,130.95-34.94,40.38,0,78.41,8.72,114.12,26.14,35.7,17.44,65.64,41.5,89.8,72.2Zm-57.97,46.58l-30.02,22.77c-30.03-37.25-68.67-55.89-115.94-55.89-41.06,0-76.17,14.58-105.33,43.73s-43.73,64.27-43.73,105.33,14.58,76.17,43.73,105.33,51.22,36.75,92.28,36.75c23.11,0,86.3-39.31,108.66-42.06,11.97-1.47,57.08,30.55,124.18,41.07,58.26,9.13,126.71-28.59,136.73-31.71l10.45,36.37c-12.51,3.97-82.55,41.1-139.9,31.16-63.96-11.09-112.48-41.15-127.32-39.52-28.15,3.1-84.19,41.95-112.81,41.95-51.42,0-82.28-11.21-118.69-47.61s-54.59-80.31-54.59-131.73,18.19-95.31,54.59-131.72,80.31-54.61,131.73-54.61c28.97,0,56.23,6.3,81.77,18.89s46.94,29.77,64.19,51.5Z"/><path class="cls-1" d="m1004.43,254.23h32.54v650.77h-32.54V254.23Zm65.08,0h32.54v650.77h-32.54V254.23Zm65.08,0h32.54v650.77h-32.54V254.23Zm65.08,0h32.54v650.77h-32.54V254.23Z"/><path class="cls-1" d="m1349.7,310.27v594.73h-32.54V254.23h38.87l375.55,650.77h-37.51l-344.37-594.73Zm32.54,89.48l32.54,59.65v445.6h-32.54v-505.25Zm11.3-145.52h37.96l376.9,650.77h-37.96l-376.91-650.77Zm53.78,262.57l32.54,59.2v329h-32.54v-388.2Zm23.05-262.57h38.41l376.45,650.77h-38.87l-376-650.77Zm76.38,0h37.96l343.46,594.28V254.23h32.54v650.77h-38.41l-375.55-650.77Zm283.81,388.2l-32.54-59.2V254.23h32.54v388.2Zm65.08,112.53l-32.54-55.13V254.23h32.54v500.73Z"/><path class="cls-1" d="m2078.2,905h-32.54V254.23h32.54v650.77Zm65.08,0h-32.54V254.23h32.54v650.77Zm65.08,0h-32.54V254.23h32.54v650.77Zm65.08-162.69h311.38v32.54h-311.38v32.54h311.38v32.54h-311.38v32.54h311.38v32.54h-343.91V254.23h343.91v32.54h-311.38v32.54h311.38v32.54h-311.38v32.54h311.38v32.54h-311.38v80.89h293.3v32.54h-293.3v32.54h293.3v32.54h-293.3v32.54h293.3v32.54h-293.3v81.8Z"/><path class="cls-1" d="m2662.99,254.23h32.54v650.77h-32.54V254.23Zm65.08,0h32.54v650.77h-32.54V254.23Zm65.08,0h32.54v650.77h-32.54V254.23Zm65.08,0h32.54v650.77h-32.54V254.23Zm270.25,0h-36.15l-181.67,328.1,178.96,322.67h36.15l-178.96-322.67,181.67-328.1Zm72.76,0h-36.15l-181.22,328.1,178.51,322.67h36.15l-178.51-322.67,181.22-328.1Zm72.76,0h-36.15l-181.22,328.1,178.51,322.67h36.15l-178.51-322.67,181.22-328.1Zm72.76,0h-36.15l-181.22,328.1,178.51,322.67h36.15l-178.51-322.67,181.22-328.1Z"/><path class="cls-1" d="m3405.05,254.23h32.54v650.77h-32.54V254.23Zm65.08,0h32.54v650.77h-32.54V254.23Zm65.08,0h32.54v650.77h-32.54V254.23Zm65.08,0h32.54v488.08h239.97v32.54h-239.97v32.54h239.97v32.54h-239.97v32.54h239.97v32.54h-272.51V254.23Z"/><path class="cls-1" d="m4566.95,616.67V254.23h32.54v362.44c0,43.38-8.74,84.89-26.21,124.51-17.48,39.62-40.98,73.74-70.5,102.36-29.53,28.63-64.62,51.45-105.3,68.47-40.67,17.02-83.31,25.53-127.89,25.53s-87.22-8.52-127.89-25.53c-40.67-17.02-75.78-39.84-105.3-68.47-29.53-28.62-53.03-62.74-70.5-102.36-17.48-39.61-26.21-81.12-26.21-124.51V254.23h32.54v362.44c0,51.82,13.33,99.88,40,144.16,26.66,44.29,62.82,79.39,108.46,105.3,45.64,25.92,95.28,38.87,148.91,38.87s103.26-12.95,148.91-38.87c45.64-25.91,81.8-61.01,108.46-105.3,26.66-44.29,40-92.34,40-144.16Zm-65.08,0V254.23h32.54v362.44c0,46.1-11.91,88.8-35.7,128.12-23.8,39.32-56.04,70.43-96.71,93.32-40.67,22.9-84.81,34.35-132.41,34.35s-91.74-11.45-132.41-34.35c-40.67-22.89-72.92-54-96.71-93.32-23.8-39.32-35.7-82.02-35.7-128.12V254.23h32.54v362.44c0,40.07,10.39,77.28,31.18,111.63,20.79,34.35,49.03,61.54,84.74,81.57,35.7,20.04,74.49,30.05,116.37,30.05s80.67-10.01,116.37-30.05c35.7-20.03,63.95-47.23,84.74-81.57,20.79-34.35,31.18-71.55,31.18-111.63Zm-65.08,0V254.23h32.54v362.44c0,52.73-19.59,97.69-58.75,134.9-39.17,37.21-86.17,55.81-141,55.81s-101.84-18.6-141-55.81c-39.17-37.21-58.75-82.17-58.75-134.9V254.23h32.54v362.44c0,43.69,16.34,80.97,49.03,111.85,32.69,30.89,72.08,46.32,118.18,46.32s85.11-15.44,117.95-46.32c32.83-30.88,49.26-68.16,49.26-111.85Zm-65.08,0V254.23h32.54v362.44c0,34.35-13.18,63.88-39.54,88.58-26.37,24.71-58.07,37.06-95.13,37.06s-68.77-12.35-95.13-37.06c-26.37-24.7-39.54-54.23-39.54-88.58V254.23h32.54v362.44c0,25.61,10.01,47.53,30.05,65.75,20.03,18.23,44.06,27.34,72.08,27.34s52.04-9.11,72.08-27.34c20.03-18.22,30.05-40.14,30.05-65.75Z"/><path class="cls-1" d="m5191.06,576l-.9-.45c34.04-33.14,51.07-73.51,51.07-121.12s-16.8-84.43-50.39-117.73c-33.6-33.29-73.29-49.94-119.08-49.94h-357.92v618.23h-32.54V254.23h390.46c35.55,0,68.92,9.12,100.1,27.34,31.18,18.23,55.96,42.78,74.34,73.66,18.37,30.89,27.57,63.95,27.57,99.2,0,48.21-12.96,89.64-38.87,124.28,25.91,35.86,38.87,75.32,38.87,118.4s-9.34,77.66-28.02,109.14c-18.68,31.49-43.16,55.21-73.44,71.18-30.28,15.97-63.8,23.95-100.55,23.95h-205.62v-32.54h205.62c46.39,0,86.24-16.5,119.53-49.49,33.29-32.99,49.94-73.73,49.94-122.25,0-22.29-4.82-44.29-14.46-65.98-9.65-21.69-21.69-39.92-36.15-54.68,0-.3.15-.45.45-.45Zm-119.31,227.77h-205.62v32.54h205.62c37.35,0,69.52-13.33,96.49-40,26.96-26.66,40.45-59.72,40.45-99.2,0-25-6.71-48.58-20.11-70.73-13.41-22.14-31.11-39.24-53.1-51.29,21.99-11.45,39.69-27.79,53.1-49.03,13.4-21.24,20.11-45.12,20.11-71.63,0-36.15-13.64-67.71-40.9-94.68-27.27-26.96-59.28-40.45-96.03-40.45h-325.38v585.69h32.54V351.85h292.85c27.72,0,52.04,10.32,72.99,30.96,20.94,20.64,31.41,44.51,31.41,71.63,0,30.13-10.25,54.91-30.73,74.34-20.49,19.43-45.04,29.15-73.66,29.15h-205.62v32.54h205.62c27.72,0,52.04,10.7,72.99,32.09,20.94,21.4,31.41,46.25,31.41,74.57,0,31.34-10.25,56.94-30.73,76.83-20.49,19.88-45.04,29.83-73.66,29.83Zm0-310.92h-205.62v32.54h205.62c20.18,0,37.21-6.4,51.07-19.21,13.85-12.8,20.79-30.05,20.79-51.75,0-18.37-7.23-34.64-21.69-48.81-14.46-14.16-31.18-21.24-50.16-21.24h-260.31v520.62h32.54v-488.08h227.77c10.24,0,19.36,3.84,27.34,11.52,7.98,7.68,11.98,16.35,11.98,25.99,0,12.36-3.77,21.85-11.3,28.47-7.53,6.63-16.88,9.94-28.02,9.94Zm0,245.85h-205.62v32.54h205.62c19.88,0,36.83-6.7,50.84-20.11,14.01-13.4,21.01-31.41,21.01-54,0-19.58-7.23-36.83-21.69-51.75-14.46-14.91-31.18-22.37-50.16-22.37h-206.08v32.54h206.08c10.24,0,19.36,4.22,27.34,12.65,7.98,8.44,11.98,18.08,11.98,28.92,0,13.26-3.77,23.5-11.3,30.73-7.53,7.23-16.88,10.85-28.02,10.85Z"/><path class="cls-1" d="m5858.1,576l-.9-.45c34.04-33.14,51.07-73.51,51.07-121.12s-16.8-84.43-50.39-117.73c-33.6-33.29-73.29-49.94-119.08-49.94h-357.92v618.23h-32.54V254.23h390.46c35.55,0,68.92,9.12,100.1,27.34,31.18,18.23,55.96,42.78,74.34,73.66,18.37,30.89,27.57,63.95,27.57,99.2,0,48.21-12.96,89.64-38.87,124.28,25.91,35.86,38.87,75.32,38.87,118.4s-9.34,77.66-28.02,109.14c-18.68,31.49-43.16,55.21-73.44,71.18-30.28,15.97-63.8,23.95-100.55,23.95h-205.62v-32.54h205.62c46.39,0,86.24-16.5,119.53-49.49,33.29-32.99,49.94-73.73,49.94-122.25,0-22.29-4.82-44.29-14.46-65.98-9.65-21.69-21.69-39.92-36.15-54.68,0-.3.15-.45.45-.45Zm-119.31,227.77h-205.62v32.54h205.62c37.35,0,69.52-13.33,96.49-40,26.96-26.66,40.45-59.72,40.45-99.2,0-25-6.71-48.58-20.11-70.73-13.41-22.14-31.11-39.24-53.1-51.29,21.99-11.45,39.69-27.79,53.1-49.03,13.4-21.24,20.11-45.12,20.11-71.63,0-36.15-13.64-67.71-40.9-94.68-27.27-26.96-59.28-40.45-96.03-40.45h-325.38v585.69h32.54V351.85h292.85c27.72,0,52.04,10.32,72.99,30.96,20.94,20.64,31.41,44.51,31.41,71.63,0,30.13-10.25,54.91-30.73,74.34-20.49,19.43-45.04,29.15-73.66,29.15h-205.62v32.54h205.62c27.72,0,52.04,10.7,72.99,32.09,20.94,21.4,31.41,46.25,31.41,74.57,0,31.34-10.25,56.94-30.73,76.83-20.49,19.88-45.04,29.83-73.66,29.83Zm0-310.92h-205.62v32.54h205.62c20.18,0,37.21-6.4,51.07-19.21,13.85-12.8,20.79-30.05,20.79-51.75,0-18.37-7.23-34.64-21.69-48.81-14.46-14.16-31.18-21.24-50.16-21.24h-260.31v520.62h32.54v-488.08h227.77c10.24,0,19.36,3.84,27.34,11.52,7.98,7.68,11.98,16.35,11.98,25.99,0,12.36-3.77,21.85-11.3,28.47-7.53,6.63-16.88,9.94-28.02,9.94Zm0,245.85h-205.62v32.54h205.62c19.88,0,36.83-6.7,50.84-20.11,14.01-13.4,21.01-31.41,21.01-54,0-19.58-7.23-36.83-21.69-51.75-14.46-14.91-31.18-22.37-50.16-22.37h-206.08v32.54h206.08c10.24,0,19.36,4.22,27.34,12.65,7.98,8.44,11.98,18.08,11.98,28.92,0,13.26-3.77,23.5-11.3,30.73-7.53,7.23-16.88,10.85-28.02,10.85Z"/></g><g id="Layer_3"><path class="cls-1" d="m1914.09,1171.16c73.59,20.08,153.51,1.96,213.92-43.88,28.33-21.5,55.64-50.32,69.85-83.38,10.99-25.58,17.33-64.78-6.89-85.24-28.83-24.35-65.66,2.63-74.6,33.06-12.06,41.05,19.94,79.35,47.26,105.67,32.95,31.75,64.03,63.86,57.16,113.35-6.09,43.87-40.12,78.64-85.43,79.55-15.88.32-53.62-5.31-57.82-24.31-4.49-20.3,42.38-29.41,56.6-32.45,42.7-9.12,86.88-6.89,130.25-6.75,40.81.13,82.97-.94,121.82-14.83,33.2-11.87,67.32-33.32,75.04-70.39,7.19-34.55-25.96-60.09-57.9-44.25-31.51,15.62-41.07,56.59-26.5,86.83,18.18,37.74,60.66,53.19,100.34,51.01,41.61-2.29,92.5-15.13,123.1-45.17,13.77-13.52,23.36-31.6,26.04-50.75,2.13-15.17,2.04-34.7-14.34-40.65-30.97-11.25-64.17,15.99-71.22,45.4-8.69,36.26,16.73,72.17,47.81,88.33,42.14,21.91,91.38,10.45,135.07.37,26.97-6.22,53.81-11.79,81.64-9.94,6,.4,8.91-6.58,6.48-11.29-30.61-59.1-29.16-153.73,30.56-195.61,25.16-17.65,63.25-17.39,82.49,9.35,16.77,23.3,1.67,71.52-32.33,65.33-9.39-1.71-13.34,11.55-3.99,14.46,48.96,15.24,80.83,67.78,76.29,118.21-4.64,51.58-51.19,97.91-103.69,98.6-11.6.15-24.36-2.03-33.82-9.25-12.83-9.79-13.45-25.92-1.74-36.85,19.15-17.89,51.31-18.26,75.63-21,55.09-6.19,115.01-10.26,162.27-42.42,44.65-30.39,76.73-82.27,65.41-137.47-.96-4.67-7.12-6.96-11.02-4.48-30.53,19.4-12.27,70.4,22.01,71.88,21.46.92,40.8-14.14,51.04-32.05,14.46-25.3,12.53-56.37,10.61-84.33-4.66,1.26-9.32,2.52-13.98,3.79,44.04,68.72,55.41,156.56,28.8,233.95-12.52,36.4-33.38,69.97-60.25,97.5-13.01,13.33-27.38,25.26-43.03,35.36-15.89,10.26-36.01,23.15-55.43,23.57-20.37.44-30.02-19.62-29.99-37.46.04-18.72,11.14-34.39,25.18-45.9,30.05-24.65,71.79-37.03,108.27-48.5,73.37-23.06,150.95-38.05,217.57-78.32,33.77-20.41,67.25-47.65,83.2-84.74,14.69-34.16,11.94-77.31-16.56-103.59-2.45-2.26-6.15-2.92-9.09-1.17-20.89,12.38-25.42,37.61-21.04,59.99,6.23,31.81,32.93,53.05,46.93,81.07,14.51,29.04,11.37,66.42-7.86,92.64-21.04,28.69-59.27,38.88-92.22,26.97,1.84,2.41,3.67,4.82,5.51,7.23,1.04-37.13,27.84-65.45,59.69-81.27,39.87-19.81,86.24-16.73,129.48-18.61,64.18-2.78,144.39-25.41,157.79-98.83.78-4.29-1.16-7.67-5.24-9.23-41.5-15.81-88.27-1.44-119.34,28.89-28.49,27.8-56.26,91.29-16.86,121.77,36.56,28.27,96.62,20.07,136.04,3.29,43.63-18.57,80.33-53.68,99.45-97.22,2.26-5.14,3.4-11.54,6.26-16.26,4.16-6.86,14.15-12.11,21.03-16.11,13.57-7.9,28.37-13.41,43.73-16.57,31.47-6.48,64.35-2.02,92.92,12.59,1.93-4.57,3.85-9.14,5.78-13.71-63.85-23.48-137.9-8-187.93,37.91-10.67,9.79-23.17,22.09-22.62,37.78.44,12.59,9.46,22.18,20.09,27.78,14.43,7.61,30.98,8.78,46.94,9.83,19.43,1.27,39.37.96,58.23-4.44,35.1-10.04,64.56-40.69,62.92-78.78-.21-4.78-4.64-8.63-9.49-7.23-43.14,12.4-52.22,69.32-33.97,105.09,26.42,51.79,94.63,63.89,146.42,70.29,71.61,8.84,144.03,3.48,215.15-7.06,70.31-10.42,140.8-24.28,209.71-41.73,70.86-17.94,140.44-43.29,199.94-86.66,7.72-5.63.25-18.65-7.57-12.95-96.91,70.65-218.95,92.73-334.3,114.6-65.28,12.37-131.3,22.35-197.87,23.22-33.06.43-66.23-1.34-98.92-6.35-26.9-4.12-54.61-9.66-78.87-22.5-24.64-13.05-45.1-34.39-47.42-63.24-1.88-23.35,7.04-51.14,31.7-58.23-3.16-2.41-6.33-4.82-9.49-7.23,1.81,42-38.05,65.51-75.32,68.4-18.55,1.44-107.88.17-76.09-38.35,43.34-52.52,122.54-68.57,184.8-45.67,7.96,2.93,13.32-9.86,5.78-13.71-40.19-20.55-87.69-23.08-129.8-6.55-16.37,6.43-43.69,17.91-49.92,35.61-7.69,21.84-19.03,41.84-34.63,59.04-30.03,33.13-72.86,55.57-117.87,57.79-21.83,1.08-52-.89-68.63-17.02-18.9-18.34-8.51-53.33,2.9-73.18,24.09-41.92,76.74-66.34,123.16-48.65-1.75-3.08-3.49-6.15-5.24-9.23-6.88,37.67-37.21,63.3-71.91,76.03-41.07,15.06-85.78,11.07-128.67,13.88-36.91,2.42-72.8,10.15-102.81,32.87-25.71,19.46-43.19,47.2-44.11,79.92-.1,3.49,2.43,6.12,5.51,7.23,61.3,22.16,122.46-23.57,127.73-86.31,2.97-35.31-13.48-62.09-33.57-89.47-15.68-21.36-41.43-66.83-8.42-86.4-3.03-.39-6.06-.78-9.09-1.17,34.54,31.85,21.85,84.16-4.84,116.39-26.86,32.42-65.38,54.75-103.55,71.29-78.2,33.87-164.02,45.64-241.67,81.1-31.02,14.16-66.42,35.83-71.32,72.91-3.77,28.57,12.03,61.58,44.33,61.21,18.54-.21,36.84-10.17,52.51-19.21,16.56-9.55,32.08-21.08,46.15-34.01,28.66-26.35,51.6-58.94,66.93-94.71,36.6-85.4,27.3-186.94-22.73-265.02-3.75-5.85-14.52-4.06-13.98,3.79,2.27,33.09,5.41,78.02-28.48,96.93-12.77,7.13-28.47,5.92-36.27-7.34-5.81-9.88-7.19-25.24,3.67-32.14-3.67-1.49-7.34-2.99-11.02-4.48,14.08,68.69-46.94,124.54-106.89,143.06-34.51,10.66-70.6,13.82-106.32,17.84-27.59,3.11-59.28,4.19-82.15,22.01-16.93,13.2-23.36,36.11-9.51,54.18,14.84,19.36,42.36,23,64.96,19.81,53.29-7.53,97.54-53.58,104.64-106.61,7.9-59.01-29.44-120.76-86.63-138.56-1.33,4.82-2.66,9.64-3.99,14.46,27.47,5,50.54-15.82,57.22-41.6,7.36-28.41-8.71-55.89-34.6-67.96-68.24-31.82-121.08,43.57-131.15,102.27-7.12,41.5-.51,83.97,18.84,121.33,2.16-3.76,4.32-7.52,6.48-11.29-44.13-2.94-85.45,12.79-128.47,19.43-40.61,6.27-87,2.01-111.78-35.2-10.53-15.82-14.92-36.35-6.17-53.95,7.01-14.1,21.92-26.89,38.35-26.98,10.89-.06,13.99,3.42,14.76,13.88.82,11.07-1.79,22.42-6.56,32.39-8.67,18.14-23.97,31.09-41.62,40.13-36.47,18.67-89.56,31.26-129.2,17.8-34.2-11.62-63.04-49.97-43.39-85.58,8.94-16.2,32.83-32.07,49.7-15.8,12.64,12.19,4.82,32.6-3.12,45.06-19.22,30.16-59.84,42.58-93.26,48.18-70.92,11.88-143.72-3.12-214.39,11.97-22.16,4.73-71.53,15.8-69.06,47.16,2.2,27.98,48.42,38.63,70.4,39.06,67.11,1.31,112.88-60.99,104.13-125-4.79-35.02-27.15-60.73-51.78-84.34-26.01-24.93-66.21-61.46-52.45-102.14,5.67-16.75,24.28-35.9,43.36-27.66,14.09,6.08,17.96,21.82,17.68,35.87-.66,33.18-21.21,62.5-43.02,85.87-46.37,49.67-114.02,78.91-182.14,76.48-16.71-.6-33.08-3.28-49.2-7.68-9.33-2.54-13.3,11.92-3.99,14.46h0Z"/></g></svg>