<svg xmlns="http://www.w3.org/2000/svg" version="1.1" xmlns:xlink="http://www.w3.org/1999/xlink" xmlns:svgjs="http://svgjs.com/svgjs" width="1081" height="1086.79"><svg id="SvgjsSvg1000" xmlns="http://www.w3.org/2000/svg" viewBox="0 0 1081 1086.79"><defs><style>.cls-1{fill:#231f20;stroke-width:0px;}</style></defs><path class="cls-1" d="m848.9,275.5l-30.02,22.27c-34.86-43.12-77.56-77.12-128.11-101.97s-104.62-37.27-162.25-37.27c-50.38,0-98.61,9.84-144.67,29.5-46.06,19.67-85.75,46.16-119.05,79.45s-59.78,72.98-79.44,119.05c-19.67,46.06-29.5,94.28-29.5,144.66s9.83,98.61,29.5,144.67c19.66,46.06,46.14,85.75,79.44,119.05s72.98,59.78,119.05,79.44c46.06,19.67,81.25,22.52,131.63,22.52,57.62,0,77.85-36.77,133.78-43.46,26.51-3.18,93.59,15.14,141.79,27.83,53.47,14.08,131.74-18.17,159.62-26.74l11.74,35.37c-31.24,9.69-110.21,40.76-162.52,25.87-45.45-12.94-117.4-28.8-146.06-25.34-61.66,7.42-74.86,43.74-138.34,43.74-55.56,0-95.57-3.89-146.11-25.63-50.56-21.73-94.12-50.89-130.69-87.47-36.58-36.56-65.73-80.12-87.47-130.69-21.75-50.55-32.61-103.59-32.61-159.16s10.86-108.59,32.61-159.16c21.73-50.55,50.89-94.11,87.47-130.69s80.12-65.72,130.69-87.47c50.55-21.73,103.59-32.61,159.16-32.61,63.48,0,123.17,13.72,179.08,41.16,55.89,27.44,102.98,65.12,141.3,113.08Zm-57.97,46.58l-28.98,23.3c-27.95-34.84-62.28-62.28-103-82.3-40.72-20-84.19-30.02-130.42-30.02-40.38,0-78.94,7.86-115.69,23.55-36.75,15.7-68.48,36.92-95.23,63.67s-47.97,58.48-63.66,95.23c-15.7,36.75-23.55,75.3-23.55,115.67s7.84,78.94,23.55,115.69c15.69,36.75,36.91,68.48,63.66,95.23s58.48,47.97,95.23,63.66c36.75,15.7,62.27,16.56,102.64,16.56,46.23,0,80.98-37.56,126.03-42.96,21.93-2.63,79.23,19.95,132.77,31.94,56.44,12.65,133.86-21.31,155.75-28.13l9.6,35.79c-24.65,7.63-101.8,41.11-156.28,27.88-51.25-12.45-114.01-33.21-138.41-30.35-50.35,5.91-77.71,43.09-129.46,43.09-45.56,0-75.99-1.89-117.39-19.67-41.41-17.77-77.03-41.58-106.88-71.42s-53.66-65.48-71.42-106.89c-17.78-41.41-26.66-84.88-26.66-130.42s8.88-89.03,26.66-130.44c17.77-41.41,41.58-77.03,71.42-106.88s65.47-53.64,106.88-71.42c41.41-17.77,84.88-26.66,130.44-26.66,52.09,0,101.02,11.22,146.73,33.64,45.72,22.44,84.27,53.31,115.67,92.64Zm-58.48,46.59l-29.5,22.77c-20.7-26.22-46.33-46.73-76.86-61.58-30.55-14.84-63.06-22.27-97.56-22.27-61.77,0-114.47,21.92-158.13,65.73-43.66,43.83-65.47,96.45-65.47,157.86s21.81,114.05,65.47,157.86c43.66,43.83,83.32,58.75,145.08,58.75,34.5,0,83.51-38.49,117.47-42.48,17.43-2.04,68.42,25.48,128.91,36.92,57.33,10.84,130.2-25.4,145.68-30.35l10.32,35.64c-18.4,5.82-93.05,41.16-149.59,29.53-57.19-11.77-111.56-37.02-131.32-34.68-39.3,4.68-81.09,42.69-121.47,42.69-47.28,0-77.88-4.66-117.91-27.96-40.03-23.28-71.69-54.94-94.97-94.97-23.3-40.03-34.94-83.67-34.94-130.95s11.64-90.91,34.94-130.94c23.28-40.03,54.94-71.69,94.97-94.98,40.03-23.28,83.67-34.94,130.95-34.94,40.38,0,78.41,8.72,114.12,26.14,35.7,17.44,65.64,41.5,89.8,72.2Zm-57.97,46.58l-30.02,22.77c-30.03-37.25-68.67-55.89-115.94-55.89-41.06,0-76.17,14.58-105.33,43.73s-43.73,64.27-43.73,105.33,14.58,76.17,43.73,105.33,51.22,36.75,92.28,36.75c23.11,0,86.3-39.31,108.66-42.06,11.97-1.47,57.08,30.55,124.18,41.07,58.26,9.13,126.71-28.59,136.73-31.71l10.45,36.37c-12.51,3.97-82.55,41.1-139.9,31.16-63.96-11.09-112.48-41.15-127.32-39.52-28.15,3.1-84.19,41.95-112.81,41.95-51.42,0-82.28-11.21-118.69-47.61s-54.59-80.31-54.59-131.73,18.19-95.31,54.59-131.72,80.31-54.61,131.73-54.61c28.97,0,56.23,6.3,81.77,18.89s46.94,29.77,64.19,51.5Z"></path></svg><style>@media (prefers-color-scheme: light) { :root { filter: contrast(1) brightness(0.1); } }
@media (prefers-color-scheme: dark) { :root { filter: contrast(0.3846153846153846) brightness(4.5); } }
</style></svg>